<?xml version="1.0" encoding="UTF-8" standalone="no"?>
<!-- Generator: Adobe Illustrator 16.0.0, SVG Export Plug-In . SVG Version: 6.00 Build 0)  -->

<svg
   xmlns:dc="http://purl.org/dc/elements/1.1/"
   xmlns:cc="http://creativecommons.org/ns#"
   xmlns:rdf="http://www.w3.org/1999/02/22-rdf-syntax-ns#"
   xmlns:svg="http://www.w3.org/2000/svg"
   xmlns="http://www.w3.org/2000/svg"
   xmlns:sodipodi="http://sodipodi.sourceforge.net/DTD/sodipodi-0.dtd"
   xmlns:inkscape="http://www.inkscape.org/namespaces/inkscape"
   version="1.1"
   id="Layer_1"
   x="0px"
   y="0px"
   width="34.17px"
   height="47.5px"
   viewBox="0 0 34.17 47.5"
   enable-background="new 0 0 34.17 47.5"
   xml:space="preserve"
   inkscape:version="0.48.5 r10040"
   sodipodi:docname="acesso.svg"><metadata
     id="metadata17"><rdf:RDF><cc:Work
         rdf:about=""><dc:format>image/svg+xml</dc:format><dc:type
           rdf:resource="http://purl.org/dc/dcmitype/StillImage" /></cc:Work></rdf:RDF></metadata><defs
     id="defs15" /><sodipodi:namedview
     pagecolor="#ffffff"
     bordercolor="#666666"
     borderopacity="1"
     objecttolerance="10"
     gridtolerance="10"
     guidetolerance="10"
     inkscape:pageopacity="0"
     inkscape:pageshadow="2"
     inkscape:window-width="640"
     inkscape:window-height="480"
     id="namedview13"
     showgrid="false"
     inkscape:zoom="19.873684"
     inkscape:cx="34.036089"
     inkscape:cy="33.851073"
     inkscape:window-x="0"
     inkscape:window-y="0"
     inkscape:window-maximized="0"
     inkscape:current-layer="Layer_1" /><g
     id="g3"
     transform="matrix(1.0628368,0,0,1.0628368,-0.79141128,-2.1662719)"><path
       clip-rule="evenodd"
       d="m 16.828,13.004 c 6.081,0.049 11.267,2.186 15.594,6.403 0.156,0.153 0.306,0.333 0.392,0.529 0.202,0.471 -0.041,0.83 -0.52,0.997 -0.752,0.264 -1.281,0.056 -1.87,-0.483 C 26.129,16.505 21.066,14.556 15.219,14.947 10.362,15.27 6.156,17.163 2.671,20.596 2.566,20.7 2.466,20.812 2.354,20.908 1.942,21.262 1.441,21.248 1.077,20.878 0.708,20.508 0.674,19.986 1.063,19.606 1.68,19.006 2.308,18.413 2.982,17.88 7.048,14.67 11.679,13.047 16.828,13.004 z"
       id="path5"
       inkscape:connector-curvature="0"
       style="fill:#2abfd4;fill-rule:evenodd" /><path
       clip-rule="evenodd"
       d="m 16.964,20.091 c 3.489,0.064 7.042,1.436 10.039,4.219 0.311,0.29 0.533,0.605 0.393,1.056 -0.22,0.69 -1.07,0.855 -1.654,0.298 -1.029,-0.982 -2.175,-1.79 -3.458,-2.406 -4.862,-2.337 -10.94,-1.426 -14.907,2.238 -0.099,0.091 -0.194,0.186 -0.295,0.27 -0.47,0.391 -0.971,0.375 -1.348,-0.04 -0.345,-0.384 -0.355,-0.948 0.087,-1.308 0.987,-0.802 1.958,-1.647 3.041,-2.306 2.274,-1.383 4.862,-2.017 8.102,-2.021 z"
       id="path7"
       inkscape:connector-curvature="0"
       style="fill:#2abfd4;fill-rule:evenodd" /><path
       clip-rule="evenodd"
       d="m 16.583,27.12 c 2.26,0.05 4.071,0.776 5.557,2.27 0.171,0.171 0.373,0.415 0.374,0.625 0.001,0.274 -0.106,0.645 -0.304,0.802 -0.415,0.343 -0.975,0.273 -1.344,-0.075 -0.803,-0.763 -1.733,-1.3 -2.812,-1.55 -2.14,-0.492 -4.016,0.002 -5.627,1.523 -0.22,0.209 -0.61,0.39 -0.887,0.348 -0.273,-0.042 -0.583,-0.341 -0.73,-0.609 -0.182,-0.327 -0.038,-0.688 0.245,-0.966 1.259,-1.227 2.749,-2.002 4.492,-2.265 0.395,-0.059 0.796,-0.08 1.036,-0.103 z"
       id="path9"
       inkscape:connector-curvature="0"
       style="fill:#2abfd4;fill-rule:evenodd" /><path
       clip-rule="evenodd"
       d="m 17.574,35.157 c 0,0.488 -0.453,0.927 -0.941,0.919 -0.49,-0.012 -0.922,-0.45 -0.927,-0.944 -0.007,-0.622 0.325,-1.013 0.855,-1.008 0.509,0.002 1.015,0.516 1.013,1.033 z"
       id="path11"
       inkscape:connector-curvature="0"
       style="fill:#2abfd4;fill-rule:evenodd" /></g></svg>