<?xml version="1.0" encoding="UTF-8" standalone="no"?>
<!-- Generator: Adobe Illustrator 16.0.0, SVG Export Plug-In . SVG Version: 6.00 Build 0)  -->

<svg
   xmlns:dc="http://purl.org/dc/elements/1.1/"
   xmlns:cc="http://creativecommons.org/ns#"
   xmlns:rdf="http://www.w3.org/1999/02/22-rdf-syntax-ns#"
   xmlns:svg="http://www.w3.org/2000/svg"
   xmlns="http://www.w3.org/2000/svg"
   xmlns:sodipodi="http://sodipodi.sourceforge.net/DTD/sodipodi-0.dtd"
   xmlns:inkscape="http://www.inkscape.org/namespaces/inkscape"
   version="1.1"
   id="Layer_1"
   x="0px"
   y="0px"
   width="55"
   height="48"
   viewBox="0 0 55 48"
   enable-background="new 0 0 26.834 20.75"
   xml:space="preserve"
   inkscape:version="0.48.5 r10040"
   sodipodi:docname="genero.svg"><metadata
     id="metadata11"><rdf:RDF><cc:Work
         rdf:about=""><dc:format>image/svg+xml</dc:format><dc:type
           rdf:resource="http://purl.org/dc/dcmitype/StillImage" /></cc:Work></rdf:RDF></metadata><defs
     id="defs9" /><sodipodi:namedview
     pagecolor="#ffffff"
     bordercolor="#666666"
     borderopacity="1"
     objecttolerance="10"
     gridtolerance="10"
     guidetolerance="10"
     inkscape:pageopacity="0"
     inkscape:pageshadow="2"
     inkscape:window-width="1366"
     inkscape:window-height="678"
     id="namedview7"
     showgrid="false"
     inkscape:zoom="5.686747"
     inkscape:cx="-23.706691"
     inkscape:cy="9.4190039"
     inkscape:window-x="0"
     inkscape:window-y="27"
     inkscape:window-maximized="1"
     inkscape:current-layer="Layer_1" /><g
     id="g3"
     transform="matrix(1.5655409,0,0,1.5655409,4.7966569,9.33673)"
     style="fill:#5318bd;fill-opacity:1"><path
       clip-rule="evenodd"
       d="m 9.062,3.885 c 0.304,0.284 0.556,0.52 0.834,0.779 1.002,-0.826 2.183,-1.281 3.517,-1.281 1.334,0 2.519,0.444 3.584,1.333 1.146,-1.137 2.272,-2.256 3.4,-3.375 C 20.379,1.306 20.361,1.272 20.343,1.238 19.77,1.196 19.197,1.155 18.625,1.112 18.367,1.093 18.095,1.116 17.861,1.031 17.713,0.977 17.523,0.753 17.533,0.618 c 0.009,-0.134 0.251,-0.366 0.381,-0.36 1.17,0.05 2.339,0.131 3.504,0.242 0.138,0.014 0.35,0.252 0.364,0.402 0.109,1.139 0.184,2.282 0.253,3.425 0.016,0.249 -0.126,0.426 -0.391,0.434 -0.283,0.01 -0.414,-0.158 -0.435,-0.432 -0.057,-0.793 -0.117,-1.586 -0.17,-2.29 -1.091,1.091 -2.218,2.218 -3.365,3.366 1.24,1.621 1.62,3.514 0.779,5.546 -0.838,2.02 -2.438,3.084 -4.601,3.371 0,1.023 0,2.033 0,3.09 0.599,0 1.187,0 1.772,0 0.129,0 0.258,-0.004 0.387,0.004 0.25,0.014 0.423,0.133 0.433,0.396 0.009,0.285 -0.162,0.43 -0.432,0.436 -0.527,0.012 -1.056,0.006 -1.583,0.006 -0.18,0 -0.358,0 -0.602,0 0,0.387 0,0.756 0,1.121 0,0.182 -0.002,0.361 0,0.541 0.005,0.303 -0.022,0.604 -0.421,0.596 -0.4,-0.006 -0.404,-0.318 -0.403,-0.613 0.002,-0.412 0.002,-0.824 0,-1.236 -10e-4,-0.125 -0.012,-0.252 -0.019,-0.408 -0.671,0 -1.312,0 -1.953,0 -0.115,-0.002 -0.27,0.029 -0.337,-0.031 -0.128,-0.113 -0.278,-0.277 -0.291,-0.43 -0.021,-0.26 0.19,-0.375 0.438,-0.377 0.566,-0.006 1.133,-0.004 1.699,-0.004 0.139,0 0.277,0 0.439,0 0,-1.045 0,-2.057 0,-3.09 C 10.813,14.042 9.205,12.962 8.368,10.932 7.538,8.911 7.91,7.025 9.319,5.201 9.185,5.11 9.025,5.02 8.889,4.904 8.763,4.796 8.662,4.661 8.494,4.476 8.175,4.811 7.884,5.114 7.596,5.418 7.392,5.633 7.162,5.789 6.901,5.535 6.645,5.285 6.776,5.049 6.994,4.839 7.291,4.555 7.583,4.266 7.845,4.009 7.147,3.315 6.473,2.645 5.801,1.977 5.748,2.683 5.691,3.435 5.635,4.185 5.63,4.25 5.628,4.314 5.621,4.377 5.589,4.637 5.439,4.776 5.181,4.758 4.915,4.742 4.783,4.562 4.799,4.314 4.869,3.185 4.951,2.055 5.034,0.926 5.055,0.641 5.207,0.49 5.505,0.471 6.609,0.399 7.712,0.318 8.817,0.242 9.096,0.222 9.311,0.312 9.328,0.627 9.344,0.916 9.16,1.04 8.894,1.059 8.304,1.104 7.713,1.145 7.123,1.188 6.919,1.203 6.716,1.22 6.578,1.231 7.228,1.893 7.893,2.571 8.598,3.289 8.761,3.111 8.964,2.878 9.18,2.659 9.669,2.162 9.866,2.092 10.097,2.314 10.339,2.547 10.268,2.754 9.752,3.26 9.532,3.476 9.295,3.674 9.062,3.885 z m 4.346,9.595 C 15.98,13.484 18.051,11.419 18.051,8.85 18.052,6.306 15.988,4.226 13.446,4.211 10.89,4.195 8.789,6.278 8.784,8.833 c -0.005,2.573 2.054,4.644 4.624,4.647 z"
       id="path5"
       inkscape:connector-curvature="0"
       style="fill:#5318bd;fill-rule:evenodd;fill-opacity:1" /></g></svg>