<?xml version="1.0" encoding="UTF-8" standalone="no"?>
<!-- Generator: Adobe Illustrator 16.0.0, SVG Export Plug-In . SVG Version: 6.00 Build 0)  -->

<svg
   xmlns:dc="http://purl.org/dc/elements/1.1/"
   xmlns:cc="http://creativecommons.org/ns#"
   xmlns:rdf="http://www.w3.org/1999/02/22-rdf-syntax-ns#"
   xmlns:svg="http://www.w3.org/2000/svg"
   xmlns="http://www.w3.org/2000/svg"
   xmlns:xlink="http://www.w3.org/1999/xlink"
   xmlns:sodipodi="http://sodipodi.sourceforge.net/DTD/sodipodi-0.dtd"
   xmlns:inkscape="http://www.inkscape.org/namespaces/inkscape"
   version="1.1"
   id="Layer_1"
   x="0px"
   y="0px"
   width="55.91"
   height="47.5"
   viewBox="0 0 55.910002 47.5"
   enable-background="new 0 0 67.908 47.5"
   xml:space="preserve"
   inkscape:version="0.48.5 r10040"
   sodipodi:docname="megafone.svg"><metadata
     id="metadata155"><rdf:RDF><cc:Work
         rdf:about=""><dc:format>image/svg+xml</dc:format><dc:type
           rdf:resource="http://purl.org/dc/dcmitype/StillImage" /></cc:Work></rdf:RDF></metadata><defs
     id="defs153" /><sodipodi:namedview
     pagecolor="#ffffff"
     bordercolor="#666666"
     borderopacity="1"
     objecttolerance="10"
     gridtolerance="10"
     guidetolerance="10"
     inkscape:pageopacity="0"
     inkscape:pageshadow="2"
     inkscape:window-width="640"
     inkscape:window-height="480"
     id="namedview151"
     showgrid="false"
     inkscape:zoom="4.9684211"
     inkscape:cx="33.953999"
     inkscape:cy="23.649365"
     inkscape:window-x="0"
     inkscape:window-y="0"
     inkscape:window-maximized="0"
     inkscape:current-layer="Layer_1" /><path
     clip-rule="evenodd"
     d="m -216.403,-187.463 c 0,1.586 0.011,2.997 -0.003,4.408 -0.013,1.221 -0.362,1.569 -1.563,1.579 -1.382,0.01 -2.764,0.018 -4.146,-0.003 -0.999,-0.015 -1.407,-0.42 -1.423,-1.423 -0.023,-1.478 -0.006,-2.956 -0.006,-4.565 -1.116,0 -2.151,0.006 -3.187,-0.002 -1.364,-0.01 -1.68,-0.319 -1.684,-1.656 -0.006,-2.157 -0.003,-4.314 0,-6.472 0.001,-1.535 0.301,-1.842 1.813,-1.842 5.831,-0.002 11.662,-0.014 17.492,0.016 0.713,0.004 1.16,-0.202 1.592,-0.775 1.886,-2.502 3.832,-4.959 5.735,-7.448 0.417,-0.546 0.846,-0.979 1.592,-0.749 0.752,0.232 0.872,0.832 0.871,1.523 -0.009,8.055 -0.006,16.11 -0.016,24.165 -10e-4,0.829 0.157,1.809 -0.833,2.189 -1.103,0.424 -1.529,-0.565 -2.05,-1.232 -1.827,-2.335 -3.626,-4.691 -5.461,-7.021 -0.229,-0.29 -0.602,-0.654 -0.915,-0.661 -2.55,-0.054 -5.104,-0.031 -7.808,-0.031 z m -2.312,3.607 c 0,-1.507 -0.006,-2.914 0.001,-4.321 0.006,-1.268 0.336,-1.591 1.63,-1.594 2.358,-0.006 4.715,-0.001 7.073,-0.001 0.386,0 0.772,0 1.139,0 0,-1.84 0,-3.509 0,-5.178 -5.736,0 -11.406,0 -17.07,0 0,1.744 0,3.414 0,5.178 1.091,0 2.127,-0.004 3.163,0.001 1.33,0.006 1.642,0.325 1.647,1.683 0.004,1.402 0,2.804 0,4.233 0.848,-0.001 1.551,-0.001 2.417,-0.001 z m 16.956,0.8 c 0,-6.333 0,-12.399 0,-18.738 -1.652,2.175 -3.569,3.967 -4.509,6.176 -0.718,1.688 -0.199,3.902 -0.23,5.883 0,0.067 -0.012,0.139 0.007,0.201 0.071,0.22 0.104,0.473 0.238,0.647 1.442,1.891 2.9,3.77 4.494,5.831 z"
     id="path3"
     inkscape:connector-curvature="0"
     style="fill-rule:evenodd" /><path
     clip-rule="evenodd"
     d="m -33.213,38.277 c -5.892,0.061 -10.95,-2.209 -15.351,-5.921 -2.354,-1.985 -4.392,-4.347 -6.575,-6.536 -0.434,-0.436 -0.501,-0.859 -0.086,-1.366 4.709,-5.746 10.281,-10.243 17.657,-12.064 5.61,-1.386 10.902,-0.407 15.9,2.38 4.391,2.449 7.924,5.882 11.102,9.723 0.363,0.44 0.354,0.805 0.003,1.228 -5.029,6.082 -10.959,10.775 -18.936,12.325 -0.539,0.104 -1.085,0.192 -1.632,0.222 -0.692,0.038 -1.388,0.009 -2.082,0.009 z M -11.688,25.111 C -14.959,21.18 -18.515,17.772 -23,15.463 c -5.556,-2.86 -11.267,-3.207 -17.118,-0.971 -3.281,1.254 -6.222,3.085 -8.845,5.396 -1.811,1.595 -3.489,3.339 -5.242,5.031 3.414,4.113 7.062,7.586 11.68,9.903 3.158,1.585 6.494,2.409 10.046,2.271 3.023,-0.117 5.877,-0.896 8.598,-2.188 4.821,-2.287 8.753,-5.679 12.193,-9.794 z"
     id="path5"
     inkscape:connector-curvature="0"
     style="fill:#8e4497;fill-rule:evenodd" /><path
     clip-rule="evenodd"
     d="m -25.821,25.065 c 0.03,3.84 -3.208,7.104 -7.062,7.117 -3.844,0.014 -7.1,-3.236 -7.096,-7.083 0.004,-3.818 3.186,-7.026 7.018,-7.075 3.835,-0.047 7.11,3.182 7.14,7.041 z m -12.878,-0.084 c -0.077,3.185 2.45,5.83 5.656,5.92 3.186,0.091 5.835,-2.422 5.941,-5.632 0.105,-3.216 -2.458,-5.9 -5.697,-5.966 -3.184,-0.064 -5.823,2.474 -5.9,5.678 z"
     id="path7"
     inkscape:connector-curvature="0"
     style="fill:#e15f69;fill-rule:evenodd" /><path
     clip-rule="evenodd"
     d="m -90.041,8.478 c 1.046,0 2.048,0 3.049,0 3.528,0 7.057,-0.007 10.585,0.014 0.269,10e-4 0.605,0.133 0.795,0.32 2.865,2.834 5.713,5.685 8.55,8.546 0.166,0.167 0.292,0.458 0.292,0.692 0.015,7.809 0.013,15.617 0.011,23.427 0,0.076 -0.008,0.152 -0.016,0.275 -7.742,0 -15.481,0 -23.268,0 0.002,-11.056 0.002,-22.128 0.002,-33.274 z m 1.673,1.659 c 0,10.039 0,19.993 0,29.975 0.187,0.011 0.337,0.028 0.488,0.028 6.302,0.002 12.604,-0.006 18.906,0.014 0.549,10e-4 0.566,-0.244 0.565,-0.662 -0.009,-6.822 -0.01,-13.645 0.002,-20.467 0,-0.401 -0.127,-0.678 -0.408,-0.956 -2.53,-2.512 -5.04,-5.043 -7.579,-7.547 -0.216,-0.212 -0.591,-0.368 -0.894,-0.37 -3.488,-0.026 -6.977,-0.016 -10.465,-0.016 -0.188,0.001 -0.378,0.001 -0.615,0.001 z"
     id="path9"
     inkscape:connector-curvature="0"
     style="fill:#224687;fill-rule:evenodd" /><path
     clip-rule="evenodd"
     d="m -76.711,18.413 c 0,-2.428 0,-4.841 0,-7.16 2.375,2.375 4.786,4.786 7.159,7.16 -2.289,0 -4.707,0 -7.159,0 z"
     id="path11"
     inkscape:connector-curvature="0"
     style="fill:#2abfd4;fill-rule:evenodd" /><g
     id="g13"><path
       clip-rule="evenodd"
       d="m 288.305,-138.106 c 9.435,0 18.868,0 28.302,0 1.389,0 1.598,0.201 1.598,1.562 0.002,8.579 0.002,17.157 0,25.736 0,1.348 -0.232,1.576 -1.597,1.576 -18.839,0.001 -37.679,0.001 -56.517,0 -1.321,0 -1.543,-0.221 -1.543,-1.532 0,-8.607 0,-17.214 0,-25.822 0,-1.325 0.197,-1.52 1.541,-1.52 9.406,0 18.811,0 28.216,0 z m 14.33,24.953 c 0,-0.907 0.001,-1.751 0,-2.596 -10e-4,-1.177 -0.002,-1.179 -1.177,-1.179 -7.406,-0.001 -14.812,0 -22.218,0 -1.481,0 -2.962,0.023 -4.442,-0.011 -0.621,-0.014 -0.896,0.187 -0.865,0.827 0.032,0.654 0.057,1.315 -0.006,1.964 -0.08,0.828 0.226,1.06 1.049,1.058 8.943,-0.027 17.889,-0.017 26.832,-0.019 0.275,-0.001 0.553,-0.029 0.827,-0.044 z m 7.904,-5.716 c 0,0.001 0,0.003 0,0.005 0.996,0 1.993,-0.019 2.99,0.007 0.562,0.014 0.846,-0.147 0.812,-0.771 -0.042,-0.767 -0.039,-1.539 -0.002,-2.307 0.03,-0.618 -0.255,-0.79 -0.817,-0.785 -2.051,0.015 -4.102,0.02 -6.152,-0.003 -0.574,-0.006 -0.755,0.239 -0.74,0.769 0.02,0.769 0.028,1.54 -0.004,2.308 -0.021,0.558 0.223,0.781 0.75,0.779 1.053,-0.005 2.108,-0.002 3.163,-0.002 z m -44.286,0.005 c 1.023,0 2.049,-0.015 3.072,0.005 0.49,0.011 0.762,-0.155 0.762,-0.669 -10e-4,-0.854 0.052,-1.712 -0.029,-2.559 -0.021,-0.228 -0.439,-0.594 -0.682,-0.599 -2.104,-0.048 -4.211,-0.02 -6.316,-0.035 -0.486,-0.003 -0.665,0.211 -0.662,0.665 0.006,0.797 0.022,1.594 -0.007,2.39 -0.021,0.579 0.191,0.826 0.789,0.81 1.024,-0.029 2.048,-0.008 3.073,-0.008 z m -0.953,-9.635 c -0.739,0 -1.479,0.01 -2.219,-0.003 -0.464,-0.009 -0.687,0.186 -0.683,0.656 0.008,0.854 0.007,1.708 0,2.562 -0.003,0.463 0.204,0.668 0.673,0.665 1.452,-0.01 2.904,-0.019 4.355,0.004 0.58,0.009 0.74,-0.273 0.73,-0.786 -0.015,-0.769 -0.033,-1.539 0.007,-2.306 0.032,-0.619 -0.264,-0.803 -0.814,-0.794 -0.682,0.011 -1.365,0.002 -2.049,0.002 z m 46.124,-1.911 c 0.712,0 1.425,-0.032 2.134,0.009 0.611,0.035 0.807,-0.22 0.779,-0.8 -0.033,-0.71 -0.035,-1.424 0,-2.134 0.033,-0.655 -0.219,-0.938 -0.885,-0.928 -1.366,0.021 -2.732,0.022 -4.098,-0.001 -0.551,-0.01 -0.784,0.214 -0.779,0.748 0.006,0.797 0.01,1.594 -0.005,2.391 -0.009,0.506 0.217,0.726 0.719,0.717 0.712,-0.014 1.423,-0.004 2.135,-0.002 z m -6.702,3.784 c 0.047,2.153 -0.416,2.016 1.993,1.998 1.927,-0.015 1.874,0.405 1.855,-1.879 -0.019,-2.171 0.36,-1.995 -2.008,-1.989 -2.163,0.004 -1.806,-0.239 -1.84,1.87 z m -21.221,2.003 c 2.122,-0.049 1.992,0.421 1.981,-2.016 -0.009,-1.974 0.329,-1.863 -1.882,-1.863 -1.965,0 -1.982,0 -1.961,2.004 0.023,1.948 -0.403,1.879 1.862,1.875 z m 19.313,-1.98 c -0.032,-1.989 0.359,-1.911 -1.943,-1.896 -2.223,0.014 -1.93,-0.28 -1.927,1.966 10e-4,2.008 -0.358,1.925 1.925,1.906 2.07,-0.017 1.946,0.363 1.945,-1.976 z m -26.965,0.026 c 0.025,2.231 -0.281,1.952 1.934,1.948 2.06,-0.004 1.959,0.366 1.941,-1.96 -0.016,-1.994 0.365,-1.925 -1.911,-1.91 -2.235,0.016 -1.94,-0.288 -1.964,1.922 z m -5.779,13.469 c 1.962,0 1.975,0 1.959,-1.919 -0.018,-2.123 0.322,-1.908 -1.91,-1.894 -2.117,0.014 -1.958,-0.418 -1.963,1.933 -0.005,1.88 -0.002,1.88 1.914,1.88 z m 23.111,-13.445 c 0.032,2.055 -0.333,1.94 1.9,1.927 2.18,-0.012 1.953,0.301 1.939,-1.955 -0.012,-2.018 0.412,-1.932 -1.894,-1.917 -2.203,0.016 -1.922,-0.317 -1.945,1.945 z m -23.088,-0.064 c 0.027,2.32 -0.281,1.98 1.99,1.988 2.051,0.008 1.869,0.278 1.851,-1.877 -0.019,-2.146 0.427,-1.999 -1.995,-1.991 -2.074,0.007 -1.827,-0.278 -1.846,1.88 z m -0.025,-3.793 c 1.964,0 1.967,0 1.963,-1.915 -0.002,-2.068 0.197,-1.946 -1.928,-1.929 -2.101,0.017 -1.955,-0.336 -1.945,1.964 0.008,2.213 -0.26,1.844 1.91,1.88 z m 23.081,0 c 1.97,0 1.973,0 1.97,-1.902 -0.004,-2.066 0.207,-1.96 -1.909,-1.942 -2.113,0.019 -1.976,-0.338 -1.965,1.939 0.008,2.112 -0.292,1.893 1.904,1.905 z m -1.906,3.888 c -0.05,-2.099 0.407,-1.975 -1.835,-1.978 -1.984,-0.002 -2.003,0 -1.98,1.975 0.023,2.036 -0.398,1.913 1.906,1.898 2.124,-0.013 1.89,0.332 1.909,-1.895 z m 19.266,-0.04 c 0.049,2.037 -0.406,1.937 1.792,1.939 2.028,0.002 2.046,0 2.023,-2.023 -0.022,-1.958 0.401,-1.853 -1.874,-1.854 -1.941,-0.002 -1.941,0 -1.941,1.938 z m -36.546,3.847 c -1.933,0 -1.933,0 -1.933,1.932 0,0.029 0,0.057 0,0.085 0,1.834 0,1.847 1.863,1.831 2.229,-0.021 1.953,0.322 1.95,-1.932 -0.002,-2.14 0.346,-1.897 -1.88,-1.916 z m 24.968,-7.695 c 1.947,0 1.951,0 1.947,-1.916 -0.005,-2.099 0.187,-1.938 -1.916,-1.929 -2.194,0.01 -1.936,-0.273 -1.929,1.955 0.008,2.094 -0.358,1.874 1.898,1.89 z m -23.107,0 c 1.968,0 1.972,0 1.967,-1.901 -0.006,-2.11 0.194,-1.953 -1.906,-1.943 -2.203,0.01 -1.93,-0.275 -1.941,1.952 -0.013,1.892 -0.004,1.892 1.88,1.892 z m 25.052,9.549 c 0.047,2.169 -0.396,1.997 1.992,1.994 2.089,-0.002 1.844,0.256 1.854,-1.868 0.008,-1.979 0,-1.995 -1.993,-1.975 -2.069,0.019 -1.833,-0.355 -1.853,1.849 z m -15.546,1.809 c 2.242,-0.034 2.103,0.312 2.09,-1.633 -0.015,-2.285 0.338,-2.028 -2.037,-2.024 -2.074,0.004 -1.823,-0.316 -1.834,1.864 -0.01,1.793 -0.004,1.793 1.781,1.793 z m -19.086,4.045 c 0,-1.921 0,-1.921 -1.957,-1.921 -0.029,0 -0.057,0 -0.086,0 -1.878,0.049 -1.803,-0.409 -1.803,1.834 -0.001,1.986 0,1.986 1.97,1.986 1.876,0 1.876,0 1.876,-1.899 z m -1.906,-15.403 c 1.905,0 1.915,0 1.903,-1.867 -0.014,-2.087 0.314,-1.999 -1.944,-1.976 -2.026,0.021 -1.896,-0.37 -1.899,1.913 -0.003,1.93 0,1.93 1.94,1.93 z m 19.208,-1.88 c -0.027,-2.071 0.312,-1.981 -1.881,-1.965 -2.213,0.017 -1.936,-0.304 -1.932,1.957 0.003,2.126 -0.344,1.873 1.91,1.885 1.903,0.011 1.903,0.003 1.903,-1.877 z m 3.856,1.88 c 1.93,0 1.939,0 1.928,-1.857 -0.014,-2.099 0.316,-2.008 -1.95,-1.986 -2.022,0.02 -1.898,-0.369 -1.892,1.934 0.006,2.161 -0.254,1.889 1.914,1.909 z m 19.232,-1.828 c -0.031,-2.136 0.331,-2.03 -1.915,-2.016 -2.165,0.014 -1.905,-0.285 -1.898,1.906 0.007,2.192 -0.358,1.922 1.944,1.936 1.869,0.011 1.869,0.002 1.869,-1.826 z m -15.603,13.186 c 0.113,0 0.227,0 0.34,-10e-4 2.006,-0.03 1.811,0.292 1.809,-1.815 -0.002,-2.072 0.255,-1.837 -1.873,-1.845 -1.975,-0.008 -1.975,-0.002 -1.975,1.968 0,1.694 0,1.694 1.699,1.693 z m -13.207,-0.003 c 1.191,0 2.152,-0.008 3.113,0.003 0.503,0.007 0.719,-0.206 0.703,-0.714 -0.021,-0.736 -0.023,-1.475 0.002,-2.21 0.018,-0.5 -0.172,-0.743 -0.68,-0.739 -0.851,0.006 -1.701,-0.021 -2.551,0.018 -0.2,0.009 -0.557,0.215 -0.562,0.341 -0.043,1.115 -0.025,2.232 -0.025,3.301 z m 17.299,0.001 c 1.155,0 2.148,-0.007 3.141,0.003 0.457,0.006 0.687,-0.168 0.678,-0.651 -0.016,-0.797 0.04,-1.599 -0.033,-2.39 -0.021,-0.223 -0.375,-0.573 -0.598,-0.59 -0.877,-0.069 -1.766,-0.058 -2.646,-0.007 -0.189,0.011 -0.51,0.305 -0.519,0.481 -0.049,1.043 -0.023,2.091 -0.023,3.154 z m 11.617,5.946 c 1.836,0 1.836,0 1.836,-1.682 0,-1.959 0,-1.965 -1.914,-1.958 -1.971,0.006 -1.768,-0.217 -1.758,1.782 0.011,2.107 -0.315,1.835 1.836,1.858 z m 5.783,0 c 1.807,0 1.818,0 1.805,-1.799 -0.018,-2.159 0.277,-1.828 -1.861,-1.836 -2.01,-0.008 -1.781,-0.241 -1.772,1.765 0.01,2.144 -0.326,1.841 1.828,1.87 z"
       id="path15"
       inkscape:connector-curvature="0"
       style="fill:#f9b24f;fill-rule:evenodd" /><path
       clip-rule="evenodd"
       d="m 302.635,-113.153 c -0.274,0.015 -0.552,0.043 -0.827,0.043 -8.943,0.002 -17.889,-0.008 -26.832,0.019 -0.823,0.002 -1.129,-0.229 -1.049,-1.058 0.062,-0.649 0.038,-1.31 0.006,-1.964 -0.03,-0.64 0.244,-0.84 0.865,-0.827 1.48,0.034 2.961,0.011 4.442,0.011 7.405,0 14.812,0 22.218,0 1.175,0 1.176,0.002 1.177,1.179 0.001,0.846 0,1.69 0,2.597 z"
       id="path17"
       inkscape:connector-curvature="0"
       style="fill:#ffffff;fill-rule:evenodd" /><path
       clip-rule="evenodd"
       d="m 310.539,-118.869 c -1.055,0 -2.109,-0.003 -3.164,0.001 -0.527,0.002 -0.771,-0.221 -0.75,-0.779 0.032,-0.768 0.023,-1.539 0.004,-2.308 -0.015,-0.53 0.166,-0.775 0.74,-0.769 2.051,0.022 4.102,0.018 6.152,0.003 0.562,-0.004 0.848,0.167 0.817,0.785 -0.037,0.768 -0.04,1.54 0.002,2.307 0.034,0.625 -0.25,0.785 -0.812,0.771 -0.997,-0.025 -1.994,-0.007 -2.99,-0.007 10e-4,-0.001 10e-4,-0.003 10e-4,-0.004 z"
       id="path19"
       inkscape:connector-curvature="0"
       style="fill:#ffffff;fill-rule:evenodd" /><path
       clip-rule="evenodd"
       d="m 266.253,-118.864 c -1.025,0 -2.05,-0.021 -3.073,0.008 -0.598,0.017 -0.811,-0.23 -0.789,-0.81 0.029,-0.796 0.013,-1.593 0.007,-2.39 -0.003,-0.453 0.176,-0.668 0.662,-0.665 2.105,0.015 4.212,-0.013 6.316,0.035 0.242,0.005 0.66,0.371 0.682,0.599 0.081,0.846 0.028,1.705 0.029,2.559 0,0.514 -0.271,0.681 -0.762,0.669 -1.023,-0.02 -2.048,-0.005 -3.072,-0.005 z"
       id="path21"
       inkscape:connector-curvature="0"
       style="fill:#ffffff;fill-rule:evenodd" /><path
       clip-rule="evenodd"
       d="m 265.3,-128.499 c 0.684,0 1.367,0.009 2.05,-0.003 0.551,-0.009 0.847,0.175 0.814,0.794 -0.04,0.767 -0.021,1.537 -0.007,2.306 0.01,0.513 -0.15,0.795 -0.73,0.786 -1.451,-0.023 -2.903,-0.015 -4.355,-0.004 -0.469,0.004 -0.676,-0.202 -0.673,-0.665 0.007,-0.854 0.008,-1.708 0,-2.562 -0.004,-0.47 0.219,-0.665 0.683,-0.656 0.739,0.014 1.479,0.004 2.218,0.004 z"
       id="path23"
       inkscape:connector-curvature="0"
       style="fill:#ffffff;fill-rule:evenodd" /><path
       clip-rule="evenodd"
       d="m 311.424,-130.411 c -0.712,-0.001 -1.423,-0.011 -2.135,0.003 -0.502,0.009 -0.728,-0.21 -0.719,-0.717 0.015,-0.797 0.011,-1.594 0.005,-2.391 -0.005,-0.534 0.229,-0.758 0.779,-0.748 1.365,0.024 2.731,0.023 4.098,0.001 0.666,-0.01 0.918,0.272 0.885,0.928 -0.035,0.709 -0.033,1.424 0,2.134 0.027,0.58 -0.168,0.834 -0.779,0.8 -0.709,-0.041 -1.422,-0.009 -2.134,-0.01 z"
       id="path25"
       inkscape:connector-curvature="0"
       style="fill:#ffffff;fill-rule:evenodd" /><path
       clip-rule="evenodd"
       d="m 304.722,-126.626 c 0.034,-2.108 -0.323,-1.866 1.841,-1.871 2.368,-0.005 1.989,-0.182 2.008,1.989 0.019,2.284 0.071,1.864 -1.855,1.879 -2.41,0.019 -1.947,0.156 -1.994,-1.997 z"
       id="path27"
       inkscape:connector-curvature="0"
       style="fill:#ffffff;fill-rule:evenodd" /><path
       clip-rule="evenodd"
       d="m 283.501,-124.623 c -2.266,0.003 -1.84,0.073 -1.861,-1.874 -0.021,-2.004 -0.004,-2.004 1.961,-2.004 2.211,0 1.873,-0.111 1.882,1.863 0.011,2.437 0.141,1.966 -1.982,2.015 z"
       id="path29"
       inkscape:connector-curvature="0"
       style="fill:#ffffff;fill-rule:evenodd" /><path
       clip-rule="evenodd"
       d="m 302.814,-126.603 c 10e-4,2.338 0.125,1.959 -1.945,1.976 -2.283,0.019 -1.924,0.102 -1.925,-1.906 -0.003,-2.246 -0.296,-1.952 1.927,-1.966 2.302,-0.014 1.911,-0.092 1.943,1.896 z"
       id="path31"
       inkscape:connector-curvature="0"
       style="fill:#ffffff;fill-rule:evenodd" /><path
       clip-rule="evenodd"
       d="m 275.849,-126.577 c 0.023,-2.21 -0.271,-1.906 1.964,-1.922 2.276,-0.016 1.896,-0.084 1.911,1.91 0.018,2.326 0.118,1.956 -1.941,1.96 -2.215,0.004 -1.908,0.283 -1.934,-1.948 z"
       id="path33"
       inkscape:connector-curvature="0"
       style="fill:#ffffff;fill-rule:evenodd" /><path
       clip-rule="evenodd"
       d="m 270.07,-113.108 c -1.916,0 -1.919,0 -1.914,-1.88 0.005,-2.352 -0.154,-1.919 1.963,-1.933 2.232,-0.015 1.893,-0.229 1.91,1.894 0.015,1.919 0.003,1.919 -1.959,1.919 z"
       id="path35"
       inkscape:connector-curvature="0"
       style="fill:#ffffff;fill-rule:evenodd" /><path
       clip-rule="evenodd"
       d="m 293.181,-126.553 c 0.022,-2.262 -0.258,-1.929 1.946,-1.944 2.306,-0.016 1.882,-0.102 1.894,1.917 0.014,2.256 0.24,1.943 -1.939,1.955 -2.234,0.012 -1.869,0.126 -1.901,-1.928 z"
       id="path37"
       inkscape:connector-curvature="0"
       style="fill:#ffffff;fill-rule:evenodd" /><path
       clip-rule="evenodd"
       d="m 270.093,-126.617 c 0.019,-2.158 -0.229,-1.874 1.846,-1.88 2.422,-0.008 1.977,-0.154 1.995,1.991 0.019,2.155 0.2,1.885 -1.851,1.877 -2.271,-0.008 -1.962,0.333 -1.99,-1.988 z"
       id="path39"
       inkscape:connector-curvature="0"
       style="fill:#ffffff;fill-rule:evenodd" /><path
       clip-rule="evenodd"
       d="m 270.068,-130.41 c -2.17,-0.036 -1.902,0.333 -1.91,-1.88 -0.01,-2.3 -0.155,-1.947 1.945,-1.964 2.125,-0.017 1.926,-0.139 1.928,1.929 0.004,1.915 10e-4,1.915 -1.963,1.915 z"
       id="path41"
       inkscape:connector-curvature="0"
       style="fill:#ffffff;fill-rule:evenodd" /><path
       clip-rule="evenodd"
       d="m 293.149,-130.41 c -2.196,-0.012 -1.896,0.207 -1.904,-1.905 -0.011,-2.278 -0.148,-1.921 1.965,-1.939 2.116,-0.018 1.905,-0.124 1.909,1.942 0.003,1.902 0,1.902 -1.97,1.902 z"
       id="path43"
       inkscape:connector-curvature="0"
       style="fill:#ffffff;fill-rule:evenodd" /><path
       clip-rule="evenodd"
       d="m 291.243,-126.522 c -0.019,2.227 0.216,1.882 -1.909,1.895 -2.305,0.014 -1.883,0.137 -1.906,-1.898 -0.022,-1.975 -0.004,-1.977 1.98,-1.975 2.242,0.003 1.785,-0.121 1.835,1.978 z"
       id="path45"
       inkscape:connector-curvature="0"
       style="fill:#ffffff;fill-rule:evenodd" /><path
       clip-rule="evenodd"
       d="m 310.509,-126.562 c 0,-1.938 0,-1.939 1.941,-1.938 2.275,0.001 1.852,-0.104 1.874,1.854 0.022,2.023 0.005,2.025 -2.023,2.023 -2.198,-0.002 -1.743,0.097 -1.792,-1.939 z"
       id="path47"
       inkscape:connector-curvature="0"
       style="fill:#ffffff;fill-rule:evenodd" /><path
       clip-rule="evenodd"
       d="m 273.963,-122.715 c 2.226,0.019 1.878,-0.224 1.881,1.917 0.003,2.253 0.278,1.911 -1.95,1.932 -1.863,0.017 -1.863,0.003 -1.863,-1.831 0,-0.028 0,-0.057 0,-0.085 0,-1.933 0,-1.933 1.932,-1.933 z"
       id="path49"
       inkscape:connector-curvature="0"
       style="fill:#ffffff;fill-rule:evenodd" /><path
       clip-rule="evenodd"
       d="m 298.931,-130.41 c -2.256,-0.016 -1.891,0.204 -1.897,-1.889 -0.007,-2.229 -0.266,-1.945 1.929,-1.955 2.103,-0.009 1.911,-0.17 1.916,1.929 0.003,1.915 -0.001,1.915 -1.948,1.915 z"
       id="path51"
       inkscape:connector-curvature="0"
       style="fill:#ffffff;fill-rule:evenodd" /><path
       clip-rule="evenodd"
       d="m 275.824,-130.41 c -1.884,0 -1.893,0 -1.881,-1.892 0.012,-2.227 -0.262,-1.942 1.941,-1.952 2.101,-0.009 1.9,-0.167 1.906,1.943 0.005,1.901 0.002,1.901 -1.966,1.901 z"
       id="path53"
       inkscape:connector-curvature="0"
       style="fill:#ffffff;fill-rule:evenodd" /><path
       clip-rule="evenodd"
       d="m 300.876,-120.861 c 0.02,-2.204 -0.217,-1.83 1.853,-1.85 1.993,-0.02 2.001,-0.004 1.993,1.975 -0.01,2.125 0.235,1.866 -1.854,1.868 -2.387,0.004 -1.945,0.176 -1.992,-1.993 z"
       id="path55"
       inkscape:connector-curvature="0"
       style="fill:#ffffff;fill-rule:evenodd" /><path
       clip-rule="evenodd"
       d="m 285.33,-119.052 c -1.784,0 -1.791,0 -1.781,-1.793 0.011,-2.18 -0.24,-1.86 1.834,-1.864 2.375,-0.004 2.022,-0.26 2.037,2.024 0.012,1.945 0.152,1.6 -2.09,1.633 z"
       id="path57"
       inkscape:connector-curvature="0"
       style="fill:#ffffff;fill-rule:evenodd" /><path
       clip-rule="evenodd"
       d="m 266.244,-115.007 c 0,1.899 0,1.899 -1.876,1.899 -1.97,0 -1.971,0 -1.97,-1.986 0,-2.243 -0.075,-1.785 1.803,-1.834 0.029,0 0.057,0 0.086,0 1.957,0 1.957,0 1.957,1.921 z"
       id="path59"
       inkscape:connector-curvature="0"
       style="fill:#ffffff;fill-rule:evenodd" /><path
       clip-rule="evenodd"
       d="m 264.338,-130.41 c -1.94,0 -1.943,0 -1.94,-1.93 0.004,-2.283 -0.127,-1.893 1.899,-1.913 2.259,-0.023 1.931,-0.111 1.944,1.976 0.012,1.867 0.003,1.867 -1.903,1.867 z"
       id="path61"
       inkscape:connector-curvature="0"
       style="fill:#ffffff;fill-rule:evenodd" /><path
       clip-rule="evenodd"
       d="m 283.546,-132.29 c 0,1.879 0,1.888 -1.902,1.877 -2.254,-0.012 -1.907,0.242 -1.91,-1.885 -0.004,-2.261 -0.281,-1.94 1.932,-1.957 2.193,-0.016 1.853,-0.105 1.88,1.965 z"
       id="path63"
       inkscape:connector-curvature="0"
       style="fill:#ffffff;fill-rule:evenodd" /><path
       clip-rule="evenodd"
       d="m 287.402,-130.41 c -2.168,-0.02 -1.908,0.252 -1.914,-1.909 -0.007,-2.302 -0.131,-1.914 1.892,-1.934 2.267,-0.022 1.937,-0.113 1.95,1.986 0.011,1.857 0.002,1.857 -1.928,1.857 z"
       id="path65"
       inkscape:connector-curvature="0"
       style="fill:#ffffff;fill-rule:evenodd" /><path
       clip-rule="evenodd"
       d="m 306.634,-132.238 c 0,1.828 0,1.837 -1.869,1.826 -2.303,-0.014 -1.938,0.256 -1.944,-1.936 -0.007,-2.19 -0.267,-1.892 1.898,-1.906 2.246,-0.015 1.884,-0.12 1.915,2.016 z"
       id="path67"
       inkscape:connector-curvature="0"
       style="fill:#ffffff;fill-rule:evenodd" /><path
       clip-rule="evenodd"
       d="m 291.031,-119.052 c -1.699,0 -1.699,0 -1.699,-1.693 0,-1.97 0,-1.976 1.975,-1.968 2.128,0.008 1.871,-0.227 1.873,1.845 0.002,2.107 0.197,1.785 -1.809,1.815 -0.114,0.002 -0.227,10e-4 -0.34,10e-4 z"
       id="path69"
       inkscape:connector-curvature="0"
       style="fill:#ffffff;fill-rule:evenodd" /><path
       clip-rule="evenodd"
       d="m 277.824,-119.055 c 0,-1.069 -0.018,-2.186 0.026,-3.302 0.005,-0.126 0.361,-0.332 0.562,-0.341 0.85,-0.038 1.7,-0.011 2.551,-0.018 0.508,-0.004 0.697,0.239 0.68,0.739 -0.025,0.736 -0.022,1.474 -0.002,2.21 0.016,0.509 -0.2,0.721 -0.703,0.714 -0.962,-0.01 -1.923,-0.002 -3.114,-0.002 z"
       id="path71"
       inkscape:connector-curvature="0"
       style="fill:#ffffff;fill-rule:evenodd" /><path
       clip-rule="evenodd"
       d="m 295.123,-119.054 c 0,-1.062 -0.025,-2.111 0.023,-3.155 0.009,-0.176 0.329,-0.47 0.519,-0.481 0.88,-0.051 1.769,-0.062 2.646,0.007 0.223,0.018 0.576,0.368 0.598,0.59 0.073,0.792 0.018,1.593 0.033,2.39 0.009,0.483 -0.221,0.657 -0.678,0.651 -0.993,-0.01 -1.986,-0.002 -3.141,-0.002 z"
       id="path73"
       inkscape:connector-curvature="0"
       style="fill:#ffffff;fill-rule:evenodd" /><path
       clip-rule="evenodd"
       d="m 306.74,-113.108 c -2.15,-0.023 -1.825,0.249 -1.836,-1.858 -0.01,-1.999 -0.213,-1.776 1.758,-1.782 1.914,-0.007 1.914,-10e-4 1.914,1.958 0,1.682 0,1.682 -1.836,1.682 z"
       id="path75"
       inkscape:connector-curvature="0"
       style="fill:#ffffff;fill-rule:evenodd" /><path
       clip-rule="evenodd"
       d="m 312.523,-113.108 c -2.154,-0.029 -1.818,0.274 -1.829,-1.871 -0.009,-2.006 -0.237,-1.773 1.772,-1.765 2.139,0.009 1.844,-0.323 1.861,1.836 0.014,1.8 0.003,1.8 -1.804,1.8 z"
       id="path77"
       inkscape:connector-curvature="0"
       style="fill:#ffffff;fill-rule:evenodd" /></g><image
     sodipodi:absref="/home/lucastx/garagem/codingrights/pls/static/img/../../../../../../Desktop/Captura de Tela 2016-06-06 às 12.54.34.png"
     xlink:href="../../../../../../Desktop/Captura de Tela 2016-06-06 às 12.54.34.png"
     y="-69.574699"
     x="121.9082"
     style="overflow:visible"
     overflow="visible"
     width="312.0336"
     height="91.988403"
     id="image79" /><line
     stroke-miterlimit="10"
     x1="-22.268"
     y1="8.5860004"
     x2="-43.587002"
     y2="41.736"
     id="line81"
     style="fill:none;stroke:#8e4497;stroke-width:2;stroke-miterlimit:10" /><g
     id="g83"><path
       d="m -70.234,-255.227 c 0.773,-0.258 1.599,-0.395 2.282,-0.783 4.745,-2.692 9.461,-5.435 14.184,-8.165 0.363,-0.209 0.727,-0.425 1.062,-0.675 0.607,-0.452 0.806,-1.026 0.665,-1.809 -0.55,-3.062 -1.071,-6.128 -1.537,-9.202 -0.14,-0.92 -0.54,-1.521 -1.335,-1.977 -4.454,-2.556 -8.892,-5.139 -13.337,-7.709 -1.296,-0.749 -3.499,-0.559 -4.6,0.47 -3.546,3.312 -7.687,5.583 -12.265,7.113 -0.758,0.253 -1.353,0.716 -1.504,1.569 -0.519,2.917 -0.976,5.845 -1.565,8.746 -0.465,2.285 -0.302,2.436 1.737,3.614 4.702,2.717 9.406,5.432 14.13,8.111 0.601,0.339 1.329,0.452 2.083,0.697 z"
       id="path85"
       inkscape:connector-curvature="0"
       style="fill:#ffffff" /><path
       clip-rule="evenodd"
       d="m -70.234,-255.227 c -0.754,-0.246 -1.482,-0.358 -2.082,-0.698 -4.725,-2.679 -9.428,-5.394 -14.13,-8.111 -2.039,-1.178 -2.202,-1.33 -1.737,-3.614 0.589,-2.901 1.047,-5.829 1.565,-8.746 0.151,-0.853 0.746,-1.316 1.504,-1.569 4.579,-1.529 8.719,-3.801 12.265,-7.113 1.101,-1.029 3.303,-1.219 4.6,-0.47 4.445,2.57 8.883,5.153 13.337,7.709 0.795,0.456 1.195,1.057 1.335,1.977 0.466,3.074 0.987,6.141 1.537,9.202 0.141,0.783 -0.058,1.357 -0.665,1.809 -0.336,0.25 -0.699,0.465 -1.062,0.675 -4.723,2.73 -9.439,5.473 -14.184,8.165 -0.684,0.389 -1.51,0.527 -2.283,0.784 z m -15.206,-19.712 c -0.513,2.809 -0.998,5.529 -1.512,8.244 -0.128,0.674 0.229,1.004 0.728,1.292 4.576,2.637 9.172,5.24 13.717,7.929 1.585,0.937 3.013,0.928 4.579,0.007 3.808,-2.24 7.653,-4.417 11.479,-6.625 0.834,-0.481 1.656,-0.983 2.483,-1.474 0.403,-0.239 0.548,-0.539 0.451,-1.042 -0.269,-1.38 -0.462,-2.775 -0.695,-4.162 -0.226,-1.349 -0.466,-2.694 -0.718,-4.149 -0.268,0.23 -0.436,0.369 -0.598,0.515 -3.738,3.382 -8.027,5.775 -12.839,7.284 -1.64,0.514 -3.047,0.299 -4.505,-0.569 -3.966,-2.36 -7.978,-4.644 -11.972,-6.956 -0.168,-0.097 -0.349,-0.172 -0.598,-0.294 z m 15.359,7.468 c 0.017,-0.038 0.035,-0.075 0.052,-0.113 0.169,-0.032 0.342,-0.052 0.507,-0.098 5.246,-1.429 9.852,-4.007 13.833,-7.707 0.743,-0.69 0.713,-0.967 -0.183,-1.487 -4.097,-2.383 -8.191,-4.771 -12.302,-7.131 -0.501,-0.288 -1.076,-0.49 -1.642,-0.614 -1.167,-0.255 -2.033,0.392 -2.86,1.091 -2.12,1.793 -4.349,3.428 -6.882,4.59 -1.567,0.719 -3.184,1.327 -4.76,2.025 -0.33,0.146 -0.578,0.477 -0.865,0.722 0.252,0.271 0.458,0.623 0.764,0.803 4.089,2.396 8.185,4.782 12.3,7.133 0.625,0.359 1.356,0.529 2.038,0.786 z"
       id="path87"
       inkscape:connector-curvature="0"
       style="fill:#e61875;fill-rule:evenodd" /><path
       clip-rule="evenodd"
       d="m -85.44,-274.939 c 0.249,0.122 0.43,0.197 0.598,0.294 3.995,2.312 8.006,4.595 11.972,6.956 1.458,0.868 2.865,1.083 4.505,0.569 4.812,-1.509 9.101,-3.901 12.839,-7.284 0.162,-0.146 0.33,-0.285 0.598,-0.515 0.252,1.455 0.492,2.801 0.718,4.149 0.233,1.387 0.427,2.782 0.695,4.162 0.097,0.503 -0.048,0.802 -0.451,1.042 -0.827,0.491 -1.649,0.993 -2.483,1.474 -3.827,2.207 -7.672,4.384 -11.479,6.625 -1.565,0.921 -2.994,0.93 -4.579,-0.007 -4.545,-2.688 -9.141,-5.292 -13.717,-7.929 -0.499,-0.287 -0.855,-0.617 -0.728,-1.292 0.514,-2.715 0.999,-5.435 1.512,-8.244 z"
       id="path89"
       inkscape:connector-curvature="0"
       style="fill:#f9b24f;fill-rule:evenodd" /><path
       clip-rule="evenodd"
       d="m -70.081,-267.471 c -0.682,-0.257 -1.413,-0.428 -2.038,-0.785 -4.115,-2.352 -8.211,-4.737 -12.3,-7.133 -0.306,-0.18 -0.512,-0.531 -0.764,-0.803 0.287,-0.245 0.535,-0.575 0.865,-0.722 1.576,-0.699 3.193,-1.306 4.76,-2.025 2.533,-1.163 4.762,-2.797 6.882,-4.59 0.827,-0.7 1.693,-1.346 2.86,-1.091 0.566,0.124 1.141,0.326 1.642,0.614 4.11,2.36 8.205,4.748 12.302,7.131 0.896,0.521 0.926,0.797 0.183,1.487 -3.98,3.7 -8.586,6.277 -13.833,7.707 -0.165,0.045 -0.337,0.066 -0.507,0.098 -0.017,0.037 -0.035,0.075 -0.052,0.112 z m -3.303,-7.794 c -0.029,-0.066 -0.059,-0.132 -0.088,-0.198 -0.211,0.083 -0.43,0.15 -0.632,0.25 -0.776,0.379 -1.567,0.734 -2.312,1.167 -0.455,0.264 -0.792,0.208 -1.211,-0.056 -1.024,-0.644 -2.073,-1.249 -3.117,-1.86 -0.156,-0.091 -0.341,-0.132 -0.512,-0.197 -0.029,0.066 -0.057,0.132 -0.086,0.197 1.348,0.8 2.694,1.602 4.047,2.394 0.094,0.055 0.258,0.082 0.349,0.039 1.192,-0.571 2.376,-1.156 3.562,-1.736 z"
       id="path91"
       inkscape:connector-curvature="0"
       style="fill:#ffffff;fill-rule:evenodd" /><path
       clip-rule="evenodd"
       d="m -73.384,-275.265 c -1.186,0.581 -2.371,1.165 -3.562,1.735 -0.091,0.043 -0.255,0.017 -0.349,-0.039 -1.353,-0.792 -2.699,-1.594 -4.047,-2.394 0.029,-0.065 0.057,-0.131 0.086,-0.197 0.171,0.064 0.356,0.105 0.512,0.197 1.043,0.612 2.093,1.217 3.117,1.86 0.418,0.264 0.756,0.32 1.211,0.056 0.746,-0.433 1.537,-0.788 2.312,-1.167 0.203,-0.099 0.421,-0.167 0.632,-0.25 0.03,0.067 0.059,0.132 0.088,0.199 z"
       id="path93"
       inkscape:connector-curvature="0"
       style="fill-rule:evenodd" /></g><g
     id="g97"
     transform="translate(3.1694917,-0.60381358)"><path
       clip-rule="evenodd"
       d="m 23.895,33.688 c -0.289,0.71 -0.561,1.391 -0.842,2.066 -0.486,1.17 -1.371,1.546 -2.558,1.084 -1.494,-0.582 -2.988,-1.164 -4.478,-1.758 -1.213,-0.482 -1.585,-1.352 -1.124,-2.586 0.258,-0.69 0.524,-1.378 0.802,-2.109 -0.159,-0.083 -0.295,-0.17 -0.442,-0.229 -1.154,-0.466 -2.308,-0.935 -3.467,-1.388 -0.602,-0.235 -0.915,-0.658 -0.916,-1.302 -0.004,-1.373 -0.004,-2.748 0,-4.121 0.001,-0.643 0.313,-1.059 0.916,-1.299 9.054,-3.613 18.103,-7.234 27.158,-10.845 1.102,-0.439 1.833,0.075 1.833,1.265 0.003,8.645 0.003,17.29 0,25.934 0,1.217 -0.742,1.702 -1.903,1.241 -4.785,-1.9 -9.567,-3.807 -14.35,-5.711 -0.191,-0.077 -0.385,-0.149 -0.629,-0.242 z m 15.981,-8.241 c 0,-4.269 0.001,-8.536 0,-12.805 0,-0.762 -0.095,-0.826 -0.812,-0.542 -1.216,0.481 -2.43,0.966 -3.645,1.452 -7.696,3.077 -15.39,6.158 -23.092,9.223 -0.443,0.176 -0.613,0.4 -0.599,0.879 0.034,1.098 0.061,2.2 -0.008,3.294 -0.042,0.679 0.224,0.95 0.819,1.188 8.836,3.519 17.664,7.062 26.494,10.598 0.758,0.304 0.842,0.25 0.842,-0.548 0.002,-4.246 10e-4,-8.492 10e-4,-12.739 z M 16.495,30.66 c -0.31,0.809 -0.598,1.532 -0.863,2.265 -0.229,0.633 -0.073,1.031 0.538,1.277 1.565,0.632 3.138,1.244 4.712,1.852 0.408,0.158 0.865,0.139 1.065,-0.275 0.389,-0.805 0.686,-1.655 1.032,-2.517 -2.205,-0.885 -4.314,-1.731 -6.484,-2.602 z"
       id="path99"
       inkscape:connector-curvature="0"
       style="fill:#e61875;fill-rule:evenodd" /><path
       clip-rule="evenodd"
       d="M 5.442,25.423 C 5.441,24.79 5.427,24.157 5.445,23.525 c 0.021,-0.75 0.351,-1.076 1.095,-1.09 0.675,-0.012 1.351,-0.013 2.025,0 0.717,0.015 1.068,0.333 1.079,1.038 0.021,1.308 0.021,2.616 -10e-4,3.924 -0.012,0.694 -0.336,0.994 -1.027,1.008 -0.717,0.015 -1.435,0.016 -2.152,0 C 5.78,28.39 5.471,28.084 5.446,27.385 5.425,26.732 5.442,26.077 5.442,25.423 z m 0.961,2.034 c 0.788,0 1.533,0 2.27,0 0,-1.383 0,-2.72 0,-4.073 -0.78,0 -1.509,0 -2.27,0 0,1.364 0,2.688 0,4.073 z"
       id="path101"
       inkscape:connector-curvature="0"
       style="fill:#e61875;fill-rule:evenodd" /></g><g
     id="g103"><path
       d="m -5.4,124.456 c 4.335,-3.711 9.532,-6.451 15.264,-7.881 l 4.126,16.629 c -3.1,0.75 -5.914,2.207 -8.275,4.186 L -5.4,124.456 z"
       id="path105"
       inkscape:connector-curvature="0"
       style="fill:#f04946" /><path
       d="m -1.597,153.569 c 0.186,7.301 4.187,13.605 10.045,17.066 L -0.14,185.2 c -10.715,-6.365 -18.028,-17.918 -18.371,-31.295 -0.299,-11.684 4.781,-22.252 12.981,-29.342 l 11.114,12.934 c -4.53,3.859 -7.345,9.656 -7.181,16.072 z"
       id="path107"
       inkscape:connector-curvature="0"
       style="fill:#8562a3" /><path
       d="m 20.612,173.384 1.427,16.93 c -0.697,0.057 -1.399,0.1 -2.106,0.117 C 12.667,190.617 5.836,188.718 0,185.285 l 8.588,-14.564 c 3.155,1.832 6.839,2.84 10.752,2.74 0.428,-0.013 0.85,-0.04 1.272,-0.077 z"
       id="path109"
       inkscape:connector-curvature="0"
       style="fill:#8562a3" /><path
       d="m 18.296,132.632 c -1.425,0.035 -2.811,0.219 -4.146,0.531 l -4.127,-16.629 c 2.568,-0.629 5.24,-1.002 7.992,-1.074 15.368,-0.393 28.807,8.523 34.932,21.609 l -15.653,7.273 c -3.35,-7.095 -10.65,-11.925 -18.998,-11.71 z"
       id="path111"
       inkscape:connector-curvature="0"
       style="fill:#f04946" /><path
       d="m 39.233,152.524 c -0.073,-2.869 -0.738,-5.584 -1.868,-8.031 l 15.653,-7.275 c 2.082,4.504 3.306,9.494 3.44,14.77 0.511,19.938 -14.643,36.631 -34.254,38.311 l -1.428,-16.93 c 10.584,-1.013 18.733,-10.054 18.457,-20.845 z"
       id="path113"
       inkscape:connector-curvature="0"
       style="fill:#f04946" /></g><g
     id="g115"><path
       d="m -51.161,158.937 16.403,4.977 c -3.656,11.914 -13.161,21.746 -26.079,25.234 -0.656,0.176 -1.313,0.332 -1.969,0.475 l -3.483,-16.549 c 0.288,-0.064 0.577,-0.133 0.867,-0.211 7.103,-1.917 12.311,-7.356 14.261,-13.926 z"
       id="path117"
       inkscape:connector-curvature="0"
       style="fill:#8562a3" /><path
       d="m -66.45,173.112 3.48,16.539 c -19.304,4.037 -38.636,-7.65 -43.842,-26.932 -1.875,-6.947 -1.666,-13.965 0.238,-20.393 l 16.302,4.854 c -1.089,3.551 -1.228,7.438 -0.188,11.289 2.847,10.546 13.452,16.923 24.01,14.643 z"
       id="path119"
       inkscape:connector-curvature="0"
       style="fill:#53bb9b" /><path
       d="m -59.826,135.892 9.191,-14.672 c 7.698,4.844 13.668,12.48 16.226,21.955 1.894,7.016 1.659,14.102 -0.298,20.582 l -16.406,-4.979 c 0.996,-3.459 1.091,-7.225 0.084,-10.953 -1.388,-5.144 -4.623,-9.295 -8.797,-11.933 z"
       id="path121"
       inkscape:connector-curvature="0"
       style="fill:#8562a3" /><path
       d="m -76.066,133.431 c -2.684,0.725 -5.094,1.953 -7.165,3.553 l -10.691,-13.412 c 3.885,-3.086 8.445,-5.451 13.54,-6.826 10.46,-2.824 21.079,-0.924 29.603,4.387 l -9.191,14.674 c -4.638,-2.882 -10.409,-3.911 -16.096,-2.376 z"
       id="path123"
       inkscape:connector-curvature="0"
       style="fill:#8562a3" /><path
       d="m -90.222,147.021 -16.301,-4.852 c 2.182,-7.24 6.519,-13.719 12.472,-18.492 l 10.688,13.408 c -3.247,2.553 -5.628,6.035 -6.859,9.936 z"
       id="path125"
       inkscape:connector-curvature="0"
       style="fill:#8562a3" /></g><g
     id="g127"><path
       d="m -144.495,158.937 16.403,4.977 c -3.656,11.914 -13.161,21.746 -26.079,25.234 -0.656,0.176 -1.313,0.332 -1.969,0.475 l -3.483,-16.549 c 0.288,-0.064 0.577,-0.133 0.867,-0.211 7.104,-1.917 12.312,-7.356 14.261,-13.926 z"
       id="path129"
       inkscape:connector-curvature="0"
       style="fill:#8562a3" /><path
       d="m -159.784,173.112 3.48,16.539 c -19.304,4.037 -38.636,-7.65 -43.842,-26.932 -1.875,-6.947 -1.666,-13.965 0.238,-20.393 l 16.302,4.854 c -1.089,3.551 -1.228,7.438 -0.188,11.289 2.847,10.546 13.453,16.923 24.01,14.643 z"
       id="path131"
       inkscape:connector-curvature="0"
       style="fill:#8562a3" /><path
       d="m -153.159,135.892 9.191,-14.672 c 7.698,4.844 13.668,12.48 16.226,21.955 1.894,7.016 1.659,14.102 -0.298,20.582 l -16.406,-4.979 c 0.996,-3.459 1.091,-7.225 0.084,-10.953 -1.388,-5.144 -4.623,-9.295 -8.797,-11.933 z"
       id="path133"
       inkscape:connector-curvature="0"
       style="fill:#8562a3" /><path
       d="m -169.4,133.431 c -2.684,0.725 -5.094,1.953 -7.165,3.553 l -10.691,-13.412 c 3.885,-3.086 8.445,-5.451 13.54,-6.826 10.46,-2.824 21.079,-0.924 29.603,4.387 l -9.191,14.674 c -4.637,-2.882 -10.409,-3.911 -16.096,-2.376 z"
       id="path135"
       inkscape:connector-curvature="0"
       style="fill:#8562a3" /><path
       d="m -183.555,147.021 -16.301,-4.852 c 2.182,-7.24 6.519,-13.719 12.472,-18.492 l 10.688,13.408 c -3.247,2.553 -5.628,6.035 -6.859,9.936 z"
       id="path137"
       inkscape:connector-curvature="0"
       style="fill:#8562a3" /></g><text
     font-size="51.0602"
     id="text139"
     style="font-size:51.06019974px;font-family:Roboto-Regular"
     x="-195.5938"
     y="241.58009">40</text>
<text
     id="text141"
     x="-188.7402"
     y="264.16019"><tspan
       x="-188.7402"
       y="264.16019"
       font-size="8.0962"
       id="tspan143"
       style="font-size:8.09619999px;font-family:Roboto-Thin">PROJETOS</tspan><tspan
       x="-198.8662"
       y="273.87619"
       font-size="8.0962"
       id="tspan145"
       style="font-size:8.09619999px;font-family:Roboto-Thin">APRESENTADOS</tspan></text>
<g
     id="g147"><path
       clip-rule="evenodd"
       d="m 334.269,184.335 c -26.094,-26.095 -52.322,-52.324 -78.75,-78.754 0.17,-0.194 0.567,-0.649 1.076,-1.231 26.018,26.008 51.731,51.714 77.469,77.442 25.826,-25.841 51.529,-51.559 77.325,-77.368 0.733,0.642 1.195,1.046 1.488,1.303"
       id="path149"
       inkscape:connector-curvature="0"
       style="fill-rule:evenodd" /></g></svg>