<?xml version="1.0" encoding="UTF-8" standalone="no"?>
<!-- Generator: Adobe Illustrator 16.0.0, SVG Export Plug-In . SVG Version: 6.00 Build 0)  -->

<svg
   xmlns:dc="http://purl.org/dc/elements/1.1/"
   xmlns:cc="http://creativecommons.org/ns#"
   xmlns:rdf="http://www.w3.org/1999/02/22-rdf-syntax-ns#"
   xmlns:svg="http://www.w3.org/2000/svg"
   xmlns="http://www.w3.org/2000/svg"
   xmlns:sodipodi="http://sodipodi.sourceforge.net/DTD/sodipodi-0.dtd"
   xmlns:inkscape="http://www.inkscape.org/namespaces/inkscape"
   version="1.1"
   id="Layer_1"
   x="0px"
   y="0px"
   width="55"
   height="48"
   viewBox="0 0 55.000001 48"
   enable-background="new 0 0 26.834 20.75"
   xml:space="preserve"
   inkscape:version="0.48.5 r10040"
   sodipodi:docname="olho.svg"><metadata
     id="metadata15"><rdf:RDF><cc:Work
         rdf:about=""><dc:format>image/svg+xml</dc:format><dc:type
           rdf:resource="http://purl.org/dc/dcmitype/StillImage" /><dc:title /></cc:Work></rdf:RDF></metadata><defs
     id="defs13" /><sodipodi:namedview
     pagecolor="#ffffff"
     bordercolor="#666666"
     borderopacity="1"
     objecttolerance="10"
     gridtolerance="10"
     guidetolerance="10"
     inkscape:pageopacity="0"
     inkscape:pageshadow="2"
     inkscape:window-width="1366"
     inkscape:window-height="710"
     id="namedview11"
     showgrid="false"
     inkscape:zoom="5.686747"
     inkscape:cx="58.89866"
     inkscape:cy="30.655524"
     inkscape:window-x="0"
     inkscape:window-y="0"
     inkscape:window-maximized="1"
     inkscape:current-layer="Layer_1" /><g
     id="g3"
     transform="matrix(1.6554712,0,0,1.6554712,4.962585,6.264161)"><path
       clip-rule="evenodd"
       d="M 13.542,18.288 C 10.125,18.323 7.19,17.007 4.637,14.853 3.271,13.703 2.09,12.332 0.824,11.063 0.572,10.81 0.532,10.563 0.774,10.27 3.506,6.937 6.738,4.328 11.017,3.271 c 3.254,-0.804 6.324,-0.236 9.222,1.381 2.548,1.42 4.598,3.412 6.441,5.64 0.21,0.256 0.205,0.468 0.002,0.713 -2.917,3.526 -6.357,6.25 -10.985,7.148 -0.312,0.061 -0.63,0.111 -0.946,0.129 -0.403,0.023 -0.807,0.006 -1.209,0.006 z M 26.026,10.65 C 24.13,8.37 22.067,6.394 19.465,5.054 16.242,3.395 12.93,3.194 9.536,4.491 7.633,5.218 5.926,6.281 4.405,7.621 3.354,8.546 2.381,9.558 1.364,10.539 c 1.979,2.387 4.096,4.401 6.775,5.744 1.832,0.92 3.767,1.398 5.827,1.318 1.754,-0.068 3.409,-0.521 4.989,-1.271 2.797,-1.325 5.076,-3.293 7.071,-5.68 z"
       id="path5"
       inkscape:connector-curvature="0"
       style="fill:#e15f69;fill-rule:evenodd" /><path
       clip-rule="evenodd"
       d="m 17.829,10.625 c 0.018,2.227 -1.86,4.12 -4.096,4.127 -2.229,0.009 -4.119,-1.877 -4.116,-4.107 0.002,-2.215 1.848,-4.076 4.07,-4.104 2.224,-0.028 4.125,1.845 4.142,4.084 z m -7.47,-0.048 c -0.045,1.847 1.421,3.38 3.281,3.434 1.847,0.053 3.384,-1.405 3.446,-3.268 C 17.147,8.877 15.658,7.32 13.781,7.282 11.935,7.244 10.403,8.717 10.359,10.577 z"
       id="path7"
       inkscape:connector-curvature="0"
       style="fill:#e15f69;fill-rule:evenodd" /><line
       stroke-miterlimit="10"
       x1="19.891001"
       y1="1.0650001"
       x2="7.5240002"
       y2="20.295"
       id="line9"
       style="fill:none;stroke:#e15f69;stroke-width:0.60405761;stroke-miterlimit:10" /></g></svg>